<svg width="129" height="169" viewBox="0 0 129 169" fill="none" xmlns="http://www.w3.org/2000/svg">
<path d="M68.4987 24.1895C66.0437 28.4417 64.8841 33.0961 64.8872 37.6612C60.9322 39.9411 57.4811 43.2725 55.0261 47.5247C52.5711 51.7769 51.4115 56.4313 51.4146 60.9964C47.4596 63.2763 44.0085 66.6077 41.5535 70.8599C39.0985 75.1121 37.939 79.7665 37.942 84.3316C33.987 86.6115 30.5359 89.9429 28.0809 94.1951C25.6558 98.3955 24.4742 102.968 24.5072 107.481C20.4701 109.783 16.937 113.136 14.4521 117.44C6.96729 130.404 11.462 147.035 24.4821 154.552C37.5022 162.069 54.1522 157.646 61.637 144.682C64.1219 140.378 65.2593 135.642 65.2341 130.995C69.1371 128.685 72.5283 125.457 74.9533 121.257C77.4083 117.005 78.5679 112.35 78.5648 107.785C82.5198 105.505 85.9709 102.174 88.4259 97.9217C90.8809 93.6695 92.0405 89.0151 92.0374 84.45C95.9924 82.1701 99.4435 78.8387 101.899 74.5865C104.354 70.3343 105.513 65.6799 105.51 61.1148C109.465 58.8349 112.916 55.5035 115.371 51.2513C122.826 38.3391 118.376 21.8722 105.407 14.3852C92.4395 6.89805 75.9535 11.2773 68.4987 24.1895ZM28.6538 94.5259C30.989 90.4811 34.1863 87.3489 37.9773 85.1125C38.2685 93.5085 42.4277 101.579 49.8063 106.6C41.769 102.72 32.6477 103.124 25.149 107.091C25.2644 102.802 26.3784 98.467 28.6538 94.5259ZM61.3245 144.502C53.9295 157.31 37.4735 161.638 24.6617 154.241C11.8499 146.844 7.39953 130.377 14.7645 117.621C17.1896 113.42 20.6108 110.141 24.4838 107.883C24.5641 117.125 29.4512 126.1 38.0445 131.061C46.6378 136.023 56.854 135.767 64.8982 131.216C64.9312 135.729 63.7496 140.302 61.3245 144.502ZM38.3738 130.491C29.8847 125.59 25.1317 116.623 25.1777 107.523C33.1242 103.26 43.0423 103.041 51.4273 107.882C59.8123 112.723 64.6329 121.452 64.863 130.435C57.005 135.025 46.863 135.392 38.3738 130.491ZM74.3804 120.926C72.0751 124.919 68.8779 128.051 65.2509 130.244C64.9597 121.848 60.7263 113.665 53.3477 108.645C61.385 112.524 70.4542 112.091 77.8709 108.145C77.8076 112.464 76.7157 116.881 74.3804 120.926ZM52.2057 106.533C43.977 101.783 39.3647 93.1734 39.313 84.3626C47.0278 80.3815 56.5879 80.3006 64.6604 84.9612C72.7329 89.6219 77.4428 97.9416 77.8525 106.613C70.1664 111.026 60.4344 111.284 52.2057 106.533ZM87.2802 97.2602C85.0946 101.046 82.0093 104.104 78.5464 106.253C78.0325 97.5216 73.2184 89.1417 65.0418 84.4209C56.8652 79.7001 47.2009 79.7209 39.3819 83.6418C39.4596 79.5382 40.6179 75.3671 42.8034 71.5816C44.989 67.7961 48.0743 64.7374 51.5372 62.5883C52.051 71.3202 56.8652 79.7001 65.0418 84.4209C73.2184 89.1417 82.8827 89.1209 90.7017 85.1999C90.5719 89.2735 89.4956 93.4229 87.2802 97.2602ZM66.337 82.0573C58.577 77.5771 54.2316 69.4678 54.1266 61.1102C61.4301 57.7213 70.252 57.8365 77.8036 62.1964C85.3553 66.5564 89.8139 74.1087 90.5829 82.1583C83.2925 86.2461 74.097 86.5375 66.337 82.0573ZM99.5549 73.2334C97.5789 76.6559 94.9193 79.338 91.8144 81.3482C90.8892 73.2085 86.1702 65.5058 78.4623 61.0556C70.7544 56.6054 61.7242 56.37 54.1603 59.6085C54.3487 55.9145 55.3716 52.2184 57.3176 48.8477C59.2637 45.4771 61.9532 42.7431 65.0581 40.7329C66.0354 48.9027 70.7544 56.6054 78.4623 61.0556C86.1702 65.5058 95.2005 65.7412 102.764 62.5026C102.554 66.1147 101.531 69.8109 99.5549 73.2334Z" fill="white"/>
</svg>
